<?xml version="1.0" encoding="utf-8"?><!-- Uploaded to: SVG Repo, www.svgrepo.com, Generator: SVG Repo Mixer Tools -->
<svg fill="#000000" width="800px" height="800px" viewBox="0 0 24 24" xmlns="http://www.w3.org/2000/svg">
  <path fill-rule="evenodd" d="M11.4434703,19.4783366 L7.11534027,21.8561884 C6.53071469,22.1773786 5.80762087,21.9424899 5.50026501,21.3315498 C5.3778743,21.0882703 5.3356403,20.8096129 5.38010133,20.5387172 L6.2067006,15.5023462 C6.27323987,15.0969303 6.14461904,14.6832584 5.86275418,14.3961413 L2.36122346,10.8293635 C1.88825143,10.3475782 1.87857357,9.55633639 2.33960735,9.06207547 C2.52319342,8.86525818 2.76374635,8.73717345 3.02402575,8.69765029 L7.8630222,7.96285367 C8.25254987,7.90370429 8.58928356,7.64804097 8.76348563,7.27918144 L10.9275506,2.69693973 C11.2198634,2.07798981 11.936976,1.82386417 12.5292664,2.12933421 C12.7651196,2.25097399 12.9560234,2.45047063 13.0724239,2.69693973 L15.2364889,7.27918144 C15.410691,7.64804097 15.7474247,7.90370429 16.1369524,7.96285367 L20.9759488,8.69765029 C21.6295801,8.79690353 22.0824579,9.43108706 21.9874797,10.1141388 C21.9496589,10.3861337 21.827091,10.6375141 21.6387511,10.8293635 L18.1372204,14.3961413 C17.8553555,14.6832584 17.7267347,15.0969303 17.793274,15.5023462 L18.6198732,20.5387172 C18.7315268,21.219009 18.2943081,21.8650816 17.6433179,21.9817608 C17.3840902,22.028223 17.1174353,21.984088 16.8846343,21.8561884 L12.5565043,19.4783366 C12.2081001,19.2869252 11.7918744,19.2869252 11.4434703,19.4783366 Z M10.4804474,17.7254569 C11.4285912,17.2045517 12.5713833,17.2045517 13.5195271,17.7254569 L16.3902376,19.3026102 L15.819679,15.8262644 C15.6504974,14.7954609 15.9786587,13.7400243 16.7100131,12.9950419 L19.2066263,10.4519072 L15.8366964,9.9401868 C14.7818036,9.78000242 13.8837002,9.09812209 13.4280265,8.13326784 L11.9999873,5.10950433 L10.5719481,8.13326784 C10.1162743,9.09812209 9.21817098,9.78000242 8.1632782,9.9401868 L4.79334826,10.4519072 L7.28996143,12.9950419 C8.02131584,13.7400243 8.34947716,14.7954609 8.18029555,15.8262644 L7.60973692,19.3026102 L10.4804474,17.7254569 Z"/>
</svg>